<svg id="Layer_1" data-name="Layer 1" xmlns="http://www.w3.org/2000/svg" viewBox="0 0 595.57 544.07"><defs><style>.cls-1{fill:#1d1d1d;}.cls-2{fill:#0a9981;}</style></defs><g id="_01" data-name="01"><path class="cls-1" d="M12.93,527a24.45,24.45,0,0,1-9.49-9.16,26.83,26.83,0,0,1,0-26.29A24.44,24.44,0,0,1,13,482.36,27.84,27.84,0,0,1,26.57,479a28.49,28.49,0,0,1,10.75,2,22.07,22.07,0,0,1,8.31,5.84L41,491.35a18.69,18.69,0,0,0-14.11-5.94,20.47,20.47,0,0,0-10.1,2.5,18.15,18.15,0,0,0-7,6.91,20.3,20.3,0,0,0,0,19.7,18.08,18.08,0,0,0,7.05,6.91,20.37,20.37,0,0,0,10.1,2.51,18.68,18.68,0,0,0,14.11-6l4.66,4.52a22.49,22.49,0,0,1-8.35,5.87,28.15,28.15,0,0,1-10.78,2A27.67,27.67,0,0,1,12.93,527Z"/><path class="cls-1" d="M66.76,493.14a19.31,19.31,0,0,1,8.52-1.72v6.66A15.51,15.51,0,0,0,73.7,498q-5.58,0-8.77,3.33t-3.19,9.49v18.91H54.87v-38h6.59v6.37A11.76,11.76,0,0,1,66.76,493.14Z"/><path class="cls-1" d="M118.9,491.78l-18.41,41.76q-2.43,5.81-5.69,8.16A13,13,0,0,1,87,544.07a16.45,16.45,0,0,1-5.4-.9,11.09,11.09,0,0,1-4.34-2.61l2.94-5.16a9.59,9.59,0,0,0,6.8,2.79,6.58,6.58,0,0,0,4.19-1.32,11.3,11.3,0,0,0,3-4.55l1.22-2.65L78.65,491.78h7.16l13.25,30.37,13.11-30.37Z"/><path class="cls-1" d="M155.36,493.86a17.53,17.53,0,0,1,6.84,6.8,20.26,20.26,0,0,1,2.47,10.1,20.47,20.47,0,0,1-2.47,10.14,17.57,17.57,0,0,1-6.84,6.84,20,20,0,0,1-9.89,2.43A17.55,17.55,0,0,1,138,528.6a15.57,15.57,0,0,1-5.77-4.59v19.63h-6.88V491.78h6.6v6a14.61,14.61,0,0,1,5.8-4.77,18.35,18.35,0,0,1,7.73-1.61A19.92,19.92,0,0,1,155.36,493.86Zm-3.91,28.61a12.19,12.19,0,0,0,4.59-4.72,15.36,15.36,0,0,0,0-14,11.91,11.91,0,0,0-4.59-4.69,13,13,0,0,0-6.55-1.65,12.67,12.67,0,0,0-6.48,1.68,12.24,12.24,0,0,0-4.59,4.69,14,14,0,0,0-1.68,6.95,14.44,14.44,0,0,0,1.65,7,11.82,11.82,0,0,0,4.58,4.72,13.48,13.48,0,0,0,13.07,0Z"/><path class="cls-1" d="M195.54,527.52a10.2,10.2,0,0,1-3.73,2,15.63,15.63,0,0,1-4.58.68c-3.82,0-6.78-1-8.88-3.08s-3.15-5-3.15-8.81V497.44h-6.45v-5.66h6.45v-8.31h6.87v8.31H193v5.66H182.07V518a6.69,6.69,0,0,0,1.54,4.72,5.75,5.75,0,0,0,4.41,1.65,8.3,8.3,0,0,0,5.37-1.79Z"/><path class="cls-1" d="M208.65,527.66a18.18,18.18,0,0,1-7.06-6.91,20.92,20.92,0,0,1,0-20,18,18,0,0,1,7.06-6.88,20.88,20.88,0,0,1,10.17-2.47A20.67,20.67,0,0,1,229,493.89a17.93,17.93,0,0,1,7,6.88,20.84,20.84,0,0,1,0,20,18.14,18.14,0,0,1-7,6.91,20.27,20.27,0,0,1-10.13,2.51A20.47,20.47,0,0,1,208.65,527.66Zm16.72-5.19a11.88,11.88,0,0,0,4.55-4.72,15.61,15.61,0,0,0,0-14,11.62,11.62,0,0,0-4.55-4.69,13.85,13.85,0,0,0-13.11,0,11.88,11.88,0,0,0-4.58,4.69,15.36,15.36,0,0,0,0,14,12.16,12.16,0,0,0,4.58,4.72,13.56,13.56,0,0,0,13.11,0Z"/><path class="cls-1" d="M299.4,515.63H270.32l-6.38,14.11H260l23.07-50.14h3.65l23.06,50.14h-3.94ZM298,512.55l-13.18-28.94-13.11,28.94Z"/><path class="cls-1" d="M322.46,527.59a17.49,17.49,0,0,1-6.73-6.76,21,21,0,0,1,0-19.63,17.21,17.21,0,0,1,6.73-6.73,19.64,19.64,0,0,1,9.74-2.4,18.84,18.84,0,0,1,8.2,1.75,14.77,14.77,0,0,1,6,5.12l-2.65,1.94a12.59,12.59,0,0,0-5-4.19,15.28,15.28,0,0,0-6.56-1.4,15.63,15.63,0,0,0-7.84,2,14,14,0,0,0-5.45,5.55,18.3,18.3,0,0,0,0,16.48,14.12,14.12,0,0,0,5.45,5.55,15.63,15.63,0,0,0,7.84,2,15.28,15.28,0,0,0,6.56-1.4,12.68,12.68,0,0,0,5-4.19l2.65,1.93a14.62,14.62,0,0,1-6,5.12,18.84,18.84,0,0,1-8.2,1.76A19.35,19.35,0,0,1,322.46,527.59Z"/><path class="cls-1" d="M380.41,495.61q3.72,3.56,3.72,10.42v23.71h-3.44v-6.66a12.37,12.37,0,0,1-5.23,5.12,17.27,17.27,0,0,1-8.23,1.83q-6.24,0-9.85-2.94a10.15,10.15,0,0,1-.29-15.29q3.33-2.9,10.64-2.9h12.82v-3q0-5.22-2.83-7.95c-1.89-1.81-4.64-2.72-8.27-2.72a19.93,19.93,0,0,0-7.13,1.29,17.81,17.81,0,0,0-5.77,3.44l-1.79-2.58a20,20,0,0,1,6.74-3.91,24.44,24.44,0,0,1,8.23-1.39C374.37,492.07,377.92,493.25,380.41,495.61Zm-4.77,29.33a13,13,0,0,0,4.91-6.23v-7H367.8q-5.52,0-8,2a6.73,6.73,0,0,0-2.47,5.51,6.92,6.92,0,0,0,2.72,5.77c1.82,1.41,4.37,2.11,7.67,2.11A14,14,0,0,0,375.64,524.94Z"/><path class="cls-1" d="M432.19,476.59v53.15h-3.51v-8.81a16,16,0,0,1-6.23,6.73,17.57,17.57,0,0,1-9.1,2.37,18.54,18.54,0,0,1-9.45-2.44,17.36,17.36,0,0,1-6.63-6.73,19.75,19.75,0,0,1-2.4-9.81,20,20,0,0,1,2.4-9.85,17.1,17.1,0,0,1,6.63-6.73,18.81,18.81,0,0,1,9.45-2.4,17.29,17.29,0,0,1,9,2.36,16.86,16.86,0,0,1,6.27,6.59V476.59ZM421.27,524.8a14.37,14.37,0,0,0,5.37-5.59,17.91,17.91,0,0,0,0-16.33,14.35,14.35,0,0,0-5.37-5.58,15.75,15.75,0,0,0-15.4,0,14.35,14.35,0,0,0-5.37,5.58,17.91,17.91,0,0,0,0,16.33,14.37,14.37,0,0,0,5.37,5.59,15.75,15.75,0,0,0,15.4,0Z"/><path class="cls-1" d="M478.89,511.91H446.73a15.73,15.73,0,0,0,2.22,7.77,14.22,14.22,0,0,0,5.62,5.26,16.85,16.85,0,0,0,8,1.87,17.18,17.18,0,0,0,6.77-1.33,13.07,13.07,0,0,0,5.19-3.9l2.08,2.36a15.91,15.91,0,0,1-6.13,4.51,21.28,21.28,0,0,1-17.94-.86,17.63,17.63,0,0,1-6.84-6.73,19.27,19.27,0,0,1-2.47-9.81,20.36,20.36,0,0,1,2.33-9.78A17.21,17.21,0,0,1,452,494.5a18.54,18.54,0,0,1,18.3,0,17.13,17.13,0,0,1,6.38,6.69A20.17,20.17,0,0,1,479,510.9ZM454,497a13.33,13.33,0,0,0-5.05,4.95,16,16,0,0,0-2.19,7.19h28.65A15,15,0,0,0,473.3,502a13.9,13.9,0,0,0-5.08-4.94,14.15,14.15,0,0,0-7.09-1.79A14.3,14.3,0,0,0,454,497Z"/><path class="cls-1" d="M547.54,496.15q4,4.08,4,11.75v21.84h-3.58V508.18q0-6.3-3.08-9.6t-8.6-3.29q-6.3,0-10,3.94t-3.69,10.6v19.91H519V508.18q0-6.3-3.08-9.6c-2-2.19-4.92-3.29-8.59-3.29q-6.31,0-10,3.94t-3.68,10.6v19.91h-3.58V492.35h3.43v8a13.81,13.81,0,0,1,5.55-6.13,17,17,0,0,1,8.78-2.18,15.56,15.56,0,0,1,8.63,2.29,12.48,12.48,0,0,1,5,6.73,14.61,14.61,0,0,1,5.84-6.59,17.42,17.42,0,0,1,9.27-2.43Q543.57,492.07,547.54,496.15Z"/><path class="cls-1" d="M595.57,492.35l-19.2,42.48q-2.14,4.93-5,7a11.05,11.05,0,0,1-6.7,2.08,13.58,13.58,0,0,1-4.84-.86,10.38,10.38,0,0,1-3.83-2.51l1.79-2.72a9.38,9.38,0,0,0,6.95,2.93,7.37,7.37,0,0,0,4.66-1.5,13.42,13.42,0,0,0,3.58-5.16l2-4.51-16.83-37.25H562l15,33.45,15-33.45Z"/><circle class="cls-1" cx="350.12" cy="84.09" r="5.3"/><circle class="cls-1" cx="397.52" cy="111.48" r="5.3"/><circle class="cls-1" cx="432.69" cy="153.44" r="5.3"/><circle class="cls-1" cx="451.37" cy="204.9" r="5.3"/><circle class="cls-1" cx="451.32" cy="259.65" r="5.3"/><circle class="cls-1" cx="432.53" cy="311.08" r="5.3"/><circle class="cls-1" cx="397.28" cy="352.96" r="5.3"/><circle class="cls-1" cx="349.83" cy="380.26" r="5.3"/><circle class="cls-1" cx="295.89" cy="389.67" r="5.3"/><circle class="cls-1" cx="241.99" cy="380.05" r="5.3"/><circle class="cls-1" cx="194.64" cy="352.57" r="5.3"/><circle class="cls-1" cx="159.56" cy="310.54" r="5.3"/><circle class="cls-1" cx="140.97" cy="259.04" r="5.3"/><circle class="cls-1" cx="141.13" cy="204.29" r="5.3"/><circle class="cls-1" cx="160.02" cy="152.91" r="5.3"/><circle class="cls-1" cx="195.35" cy="111.09" r="5.3"/><circle class="cls-1" cx="242.87" cy="83.88" r="5.3"/><path class="cls-2" d="M296.76,18.68H185.54V67.09a92.36,92.36,0,0,1,45.58-8.61c2.2.16,4.46.41,6.76.76A90.17,90.17,0,0,1,282,79.33a99,99,0,0,1,7.44,6.83,89.77,89.77,0,0,1,7.33,8.41,88.87,88.87,0,0,1,7.3-8.39,98.41,98.41,0,0,1,7.42-6.82,90.24,90.24,0,0,1,44.16-20.12q3.28-.5,6.43-.73A90.72,90.72,0,0,1,397.65,63,92.27,92.27,0,0,1,408,67.09V18.68Z"/><rect class="cls-2" x="155.45" width="281.25" height="9.07"/><path class="cls-2" d="M434.44,104a4,4,0,0,0,.17-1.11V99.72A4.17,4.17,0,0,0,432,95.87V18.51h-5.66V95.67a4.16,4.16,0,0,0-3.24,4v3.14a4,4,0,0,0,.17,1.11,4.21,4.21,0,0,0-2.46,3.82v7.65a4.2,4.2,0,0,0,4.21,4.21h7.64a4.2,4.2,0,0,0,4.21-4.21v-7.65A4.21,4.21,0,0,0,434.44,104Z"/><path class="cls-1" d="M402.17,74.87a95.91,95.91,0,0,0-29.26-4.94A175.12,175.12,0,0,1,416,99a16.39,16.39,0,0,1,1-6.76,16.58,16.58,0,0,1,4.47-6.61A101.09,101.09,0,0,0,413,79.2,95.37,95.37,0,0,0,402.17,74.87Z"/><path class="cls-1" d="M443.08,107.46A25.89,25.89,0,0,1,441.15,127a178.3,178.3,0,0,1,27.6,57.55S475,207.72,475,231.4c0,98.59-80.2,178.8-178.8,178.8S117.37,330,117.37,231.4c0-71.14,41.77-132.69,102.07-161.46a96.1,96.1,0,0,0-29.69,5.21c-4.24,1.45-10,3.53-10,3.27a192.13,192.13,0,0,0-75.92,153c0,106,86.28,192.33,192.33,192.33S488.51,337.45,488.51,231.4A191.43,191.43,0,0,0,443.08,107.46Z"/><path class="cls-1" d="M309.51,97.59a11.07,11.07,0,0,1-.92.89,21.52,21.52,0,0,1-2,1.5c67.1,5.8,121.26,62.25,121.26,130.82,0,72.41-58.91,131.31-131.32,131.31S165.25,303.21,165.25,230.8c0-68.9,54.48-125.58,122-130.91-.49-.82-2.08-1.67-2.49-2.54-68.38,6-122.2,63.54-122.2,133.45,0,73.87,60.1,134,134,134s134-60.1,134-134C430.54,161.75,376.7,104.74,309.51,97.59Z"/><path class="cls-1" d="M397.57,231.4a99.94,99.94,0,0,0-96.15-99.87V331.28A99.63,99.63,0,0,0,328,326.63V237.92h42v62.35A99.61,99.61,0,0,0,397.57,231.4ZM328,216.92v-42a42,42,0,0,1,42,42H328Z"/><path class="cls-1" d="M238.7,270.56v0a68.19,68.19,0,0,1-9.31-59.27l.15-.48c.28-.87.57-1.73.88-2.59l.13-.39c.31-.84.65-1.67,1-2.5.15-.37.31-.73.47-1.09.23-.54.47-1.07.72-1.6l.48-1c.4-.8.8-1.6,1.23-2.39.11-.21.24-.42.35-.64.39-.7.79-1.39,1.2-2.08.09-.15.18-.31.28-.46a68.44,68.44,0,0,1,27.33-25.35V182.5h28.3V163.32l-.16-31.82a100,100,0,0,0,0,199.81s.14-19.55.25-32.39A66.9,66.9,0,0,1,238.7,270.56Z"/><path class="cls-2" d="M261.62,281a59.88,59.88,0,0,0,12.88,6.24l0-11.79h0V247.75H261.62V281Z"/><path class="cls-2" d="M256.71,273.42V259H243.82v4.88a64.6,64.6,0,0,0,12.88,13.55Z"/><path class="cls-2" d="M295.57,234.81,285.26,217l-10.32,17.86H279V272.6h0v.82h0v15.12a55.44,55.44,0,0,0,12.56,1.71h0c0-5.14.08-8.88.1-8.9v-46.5l0,0Z"/></g></svg>